<svg width="77" height="44" viewBox="0 0 77 44" fill="none" xmlns="http://www.w3.org/2000/svg">
<g id="&#208;&#155;&#208;&#190;&#208;&#179;&#208;&#190;&#209;&#130;&#208;&#184;&#208;&#191; &#208;&#148;&#208;&#158;&#208;&#156;+" clip-path="url(#clip0_4_40538)">
<g id="Group">
<path id="Vector" d="M0.381394 36.4446H0V17.6591H0.353656C1.15112 17.6591 1.99018 17.6522 2.87086 17.6316C4.63914 17.5973 5.54062 17.5767 5.58222 17.5767C9.26441 17.5767 11.9966 18.5039 13.7649 20.3653C15.4083 22.103 16.2335 24.2666 16.2335 26.8629C16.2335 29.6516 15.2835 31.9594 13.3904 33.7865C11.5112 35.5929 8.84141 36.4995 5.36725 36.4995C4.64607 36.4995 3.88329 36.4927 3.09276 36.4721C2.3161 36.4515 1.41463 36.4446 0.381394 36.4446ZM5.52675 20.6606C4.81943 20.6606 4.09132 20.6881 3.33546 20.7431V33.3537C4.1676 33.3881 4.88184 33.4087 5.47821 33.4087C7.73883 33.4087 9.50711 32.818 10.79 31.6366C12.0729 30.4552 12.7108 28.8617 12.7108 26.8629C12.7108 24.8642 12.0729 23.4355 10.8039 22.3297C9.52792 21.2239 7.7735 20.6675 5.53368 20.6675L5.52675 20.6606Z" fill="#24529C"/>
<path id="Vector_2" d="M18.6675 27.0484C18.6675 24.3078 19.5898 22.0137 21.4343 20.1524C23.3136 18.291 25.6782 17.3637 28.5352 17.3637C31.3922 17.3637 33.7429 18.2566 35.6083 20.0493C37.4875 21.8558 38.4237 24.1911 38.4237 27.0553C38.4237 29.9195 37.4875 32.1792 35.6083 34.0062C33.7291 35.8333 31.3714 36.7468 28.5352 36.7468C25.699 36.7468 23.3205 35.8539 21.4621 34.0612C19.6036 32.2754 18.6744 29.9401 18.6744 27.0553L18.6675 27.0484ZM22.1902 27.0484C22.1902 28.9441 22.7935 30.517 24.007 31.774C25.2136 33.024 26.7253 33.656 28.5352 33.656C30.4838 33.656 32.0301 33.0309 33.1674 31.774C34.3254 30.5239 34.901 28.9441 34.901 27.0484C34.901 25.1527 34.2838 23.5523 33.0564 22.2953C31.829 21.059 30.3173 20.4408 28.5283 20.4408C26.7392 20.4408 25.1859 21.059 23.9793 22.2953C22.7865 23.5317 22.1902 25.1115 22.1902 27.0484Z" fill="#24529C"/>
<path id="Vector_3" d="M45.6008 36.4446H42.2654V17.6591H45.6216L52.0984 26.4371L58.277 17.6591H61.4183V36.4446H58.1106V22.8654L52.1262 31.2107H51.6407L45.6008 22.9479V36.4446Z" fill="#24529C"/>
</g>
<path id="Vector_4" d="M69.4692 35.2563V41.2457H35.2547V37.5367L32.474 38.67V41.2457V44H35.2547H69.4692H72.2499V41.2457V35.2563H69.4692Z" fill="url(#paint0_linear_4_40538)"/>
<path id="Vector_5" d="M76.9999 25.5304H72.3331V22.0137C72.3331 21.7184 72.0904 21.478 71.7922 21.478H69.8297C69.5316 21.478 69.2889 21.7184 69.2889 22.0137V25.5304H65.7454C65.4472 25.5304 65.2045 25.7708 65.2045 26.0662V27.9757C65.2045 28.271 65.4472 28.5114 65.7454 28.5114H69.2889V32.0487C69.2889 32.3441 69.5316 32.5845 69.8297 32.5845H71.7922C72.0904 32.5845 72.3331 32.3441 72.3331 32.0487V28.5114H75.2871L76.9999 25.5304Z" fill="#24529C"/>
<path id="Vector_6" d="M72.3193 11.6422L52.3758 0.0755555C52.2024 -0.0274729 51.9875 -0.0206043 51.8141 0.0824241L32.467 12.0062V15.0215L35.2478 15.9625V13.6959L51.7309 3.39307C51.8973 3.29004 52.1123 3.28317 52.2857 3.37933L69.4553 13.1945V18.9229H72.236V11.8139H72.2083L72.3054 11.6491L72.3193 11.6422Z" fill="url(#paint1_linear_4_40538)"/>
</g>
<defs>
<linearGradient id="paint0_linear_4_40538" x1="32.474" y1="39.6316" x2="72.2499" y2="39.6316" gradientUnits="userSpaceOnUse">
<stop stop-color="#009EE3"/>
<stop offset="1" stop-color="#5EC1EA"/>
</linearGradient>
<linearGradient id="paint1_linear_4_40538" x1="32.474" y1="9.46488" x2="72.3193" y2="9.46488" gradientUnits="userSpaceOnUse">
<stop stop-color="#009EE3"/>
<stop offset="1" stop-color="#5EC1EA"/>
</linearGradient>
<clipPath id="clip0_4_40538">
<rect width="77" height="44" fill="white"/>
</clipPath>
</defs>
</svg>
