<svg width="130" height="75" viewBox="0 0 130 75" fill="none" xmlns="http://www.w3.org/2000/svg">
<g id="&#208;&#155;&#208;&#190;&#208;&#179;&#208;&#190;&#209;&#130;&#208;&#184;&#208;&#191;" clip-path="url(#clip0_3_20889)">
<g id="Group">
<path id="Vector" d="M0.64 61.9699H0V30.0199H0.59C1.93 30.0199 3.34 30.0099 4.83 29.9699C7.81 29.9099 9.33 29.8799 9.39 29.8799C15.6 29.8799 20.19 31.4599 23.17 34.6299C25.94 37.5799 27.32 41.2599 27.32 45.6699C27.32 50.4199 25.72 54.3399 22.53 57.4399C19.37 60.5099 14.86 62.0499 9.02 62.0499C7.8 62.0499 6.53 62.0299 5.19 61.9999C3.88 61.9699 2.36 61.9499 0.63 61.9499L0.64 61.9699ZM9.31 35.1399C8.12 35.1399 6.89 35.1899 5.61 35.2799V56.7299C7.01 56.7899 8.21 56.8199 9.22 56.8199C13.02 56.8199 16 55.8199 18.16 53.8099C20.32 51.7999 21.4 49.0899 21.4 45.6899C21.4 42.2899 20.33 39.8599 18.18 37.9799C16.04 36.0899 13.08 35.1499 9.3 35.1499L9.31 35.1399Z" fill="white"/>
<path id="Vector_2" d="M31.44 46C31.44 41.35 32.99 37.44 36.09 34.27C39.25 31.11 43.24 29.52 48.05 29.52C52.86 29.52 56.83 31.04 59.96 34.08C63.12 37.15 64.71 41.12 64.71 45.99C64.71 50.86 63.13 54.71 59.96 57.81C56.8 60.91 52.83 62.46 48.05 62.46C43.27 62.46 39.27 60.94 36.14 57.9C33.01 54.86 31.44 50.89 31.44 45.99V46ZM37.37 46C37.37 49.22 38.39 51.9 40.43 54.03C42.47 56.16 45.01 57.22 48.05 57.22C51.34 57.22 53.94 56.16 55.85 54.03C57.8 51.9 58.77 49.22 58.77 46C58.77 42.78 57.74 40.05 55.67 37.92C53.6 35.82 51.06 34.77 48.05 34.77C45.04 34.77 42.42 35.82 40.38 37.92C38.37 40.02 37.37 42.71 37.37 46Z" fill="white"/>
<path id="Vector_3" d="M76.8 61.97H71.19V30.02H76.85L87.76 44.94L98.16 30.02H103.45V61.96H97.88V38.87L87.8 53.06H86.98L76.8 39V61.95V61.97Z" fill="white"/>
</g>
<path id="Vector_4" d="M117 59.9502V70.1302H59.38V63.8302L54.69 65.7502V70.1302V74.8102H59.38H117H121.68V70.1302V59.9502H117Z" fill="url(#paint0_linear_3_20889)"/>
<path id="Vector_5" d="M129.69 43.41H121.83V37.43C121.83 36.93 121.42 36.52 120.92 36.52H117.61C117.11 36.52 116.7 36.93 116.7 37.43V43.41H110.73C110.23 43.41 109.82 43.82 109.82 44.32V47.57C109.82 48.07 110.23 48.48 110.73 48.48H116.7V54.5C116.7 55 117.11 55.41 117.61 55.41H120.92C121.42 55.41 121.83 55 121.83 54.5V48.48H126.81L129.69 43.42V43.41Z" fill="white"/>
<path id="Vector_6" d="M121.8 19.8002L88.22 0.120221C87.93 -0.0497786 87.56 -0.0497786 87.28 0.140221L54.69 20.4102V25.5402L59.37 27.1402V23.2802L87.14 5.76022C87.42 5.58022 87.79 5.57022 88.08 5.74022L117 22.4302V32.1702H121.68V20.0802H121.63L121.79 19.7902L121.8 19.8002Z" fill="url(#paint1_linear_3_20889)"/>
</g>
<defs>
<linearGradient id="paint0_linear_3_20889" x1="54.69" y1="67.3802" x2="121.68" y2="67.3802" gradientUnits="userSpaceOnUse">
<stop stop-color="#009EE3"/>
<stop offset="1" stop-color="#5EC1EA"/>
</linearGradient>
<linearGradient id="paint1_linear_3_20889" x1="54.69" y1="16.0902" x2="121.8" y2="16.0902" gradientUnits="userSpaceOnUse">
<stop stop-color="#009EE3"/>
<stop offset="1" stop-color="#5EC1EA"/>
</linearGradient>
<clipPath id="clip0_3_20889">
<rect width="129.69" height="74.81" fill="white"/>
</clipPath>
</defs>
</svg>
