<svg width="35" height="44" fill="none" xmlns="http://www.w3.org/2000/svg"><g id="a" clip-path="url(#clip0_2_7123)"><path id="Vector" fill-rule="evenodd" clip-rule="evenodd" d="M12.78 3.65c-1 0-1.83-.82-1.83-1.83a1.83 1.83 0 111.83 1.83zm9.13 0c-1 0-1.83-.82-1.83-1.83a1.83 1.83 0 111.83 1.83zm-10.95 6.39h12.78V8.21H10.95v1.83h.01zm0-2.74h12.78c.5 0 .91.41.91.91v1.83c0 .5-.41.91-.91.91H10.95c-.5 0-.91-.41-.91-.91V8.21c0-.5.41-.91.91-.91h.01zM6.39 31.04c-1 0-1.83.82-1.83 1.83a1.83 1.83 0 101.83-1.83zm0 4.56c-1.52 0-2.74-1.22-2.74-2.74 0-1.52 1.22-2.74 2.74-2.74 1.52 0 2.74 1.22 2.74 2.74 0 1.52-1.22 2.74-2.74 2.74zm21.91-4.56c-1 0-1.83.82-1.83 1.83a1.83 1.83 0 101.83-1.83zm0 4.56c-1.52 0-2.74-1.22-2.74-2.74 0-1.52 1.22-2.74 2.74-2.74 1.52 0 2.74 1.22 2.74 2.74 0 1.52-1.22 2.74-2.74 2.74zm4.56-9.13H1.83v7.3c0 2.02 1.63 3.65 3.65 3.65h23.73c2.02 0 3.65-1.63 3.65-3.65v-7.3zm0-13.69H1.83v12.78h31.04V12.78h-.01zm0-2.74c0-2.02-1.63-3.65-3.65-3.65H5.48c-2.02 0-3.65 1.63-3.65 3.65v1.83h31.04v-1.83h-.01zm-3.65 29.21h-2.74l1.83 4.56h-1.83l-1.83-4.56h-14.6l-1.83 4.56H6.38l1.83-4.56H5.47c-3.02 0-5.48-2.46-5.48-5.48V10.04c0-3.02 2.46-5.48 5.48-5.48h23.74c3.02 0 5.48 2.46 5.48 5.48v23.73c0 3.02-2.46 5.48-5.48 5.48z" fill="#009EE3"/></g><defs><clipPath id="clip0_2_7123"><path fill="#fff" d="M0 0h34.69v43.82H0z"/></clipPath></defs></svg>