<svg width="44" height="41" viewBox="0 0 44 41" fill="none" xmlns="http://www.w3.org/2000/svg">
<g id="a" clip-path="url(#clip0_2_7132)">
<path id="Vector" fill-rule="evenodd" clip-rule="evenodd" d="M6.85 18.26C5.59 18.26 4.57 19.28 4.57 20.54C4.57 21.8 5.59 22.82 6.85 22.82C8.11 22.82 9.13 21.8 9.13 20.54C9.13 19.28 8.11 18.26 6.85 18.26ZM6.85 23.74C5.09 23.74 3.65 22.31 3.65 20.54C3.65 18.77 5.08 17.34 6.85 17.34C8.62 17.34 10.05 18.77 10.05 20.54C10.05 22.31 8.62 23.74 6.85 23.74ZM36.97 18.26C35.71 18.26 34.69 19.28 34.69 20.54C34.69 21.8 35.71 22.82 36.97 22.82C38.23 22.82 39.25 21.8 39.25 20.54C39.25 19.28 38.23 18.26 36.97 18.26ZM36.97 23.74C35.21 23.74 33.77 22.31 33.77 20.54C33.77 18.77 35.2 17.34 36.97 17.34C38.74 17.34 40.17 18.77 40.17 20.54C40.17 22.31 38.74 23.74 36.97 23.74ZM41.99 19.18C41.99 17.16 40.36 15.53 38.34 15.53H5.48C3.46 15.53 1.83 17.16 1.83 19.18V26.48C1.83 28.5 3.46 30.13 5.48 30.13H9.13V27.39C9.13 25.37 10.76 23.74 12.78 23.74H31.04C33.06 23.74 34.69 25.37 34.69 27.39V30.13H38.34C40.36 30.13 41.99 28.5 41.99 26.48V19.18ZM37.43 5.3C37.43 3.38 36.27 1.83 34.85 1.83H8.97C7.55 1.83 6.39 3.38 6.39 5.3V14.61H37.43V5.29V5.3ZM6.39 36.97C6.39 37.73 7 38.34 7.76 38.34H8.67C9.43 38.34 10.04 37.73 10.04 36.97V31.95H6.39V36.97ZM11.87 30.12H33.78V27.84C33.78 26.08 32.35 24.64 30.58 24.64H13.24C11.48 24.64 10.04 26.07 10.04 27.84V30.12H11.87ZM33.78 36.97C33.78 37.73 34.39 38.34 35.15 38.34H36.06C36.82 38.34 37.43 37.73 37.43 36.97V31.95H33.78V36.97ZM39.26 31.86V36.97C39.26 38.73 37.83 40.17 36.06 40.17H35.15C33.39 40.17 31.95 38.74 31.95 36.97V31.95H11.87V36.97C11.87 38.73 10.44 40.17 8.67 40.17H7.76C6 40.17 4.56 38.74 4.56 36.97V31.86C1.98 31.42 0 29.19 0 26.47V19.17C0 16.46 1.98 14.2 4.56 13.77V5.29C4.56 2.33 6.5 0 8.97 0H34.84C37.31 0 39.25 2.33 39.25 5.29V13.77C41.83 14.21 43.81 16.46 43.81 19.17V26.47C43.81 29.18 41.83 31.42 39.25 31.86H39.26Z" fill="#009EE3"/>
</g>
<defs>
<clipPath id="clip0_2_7132">
<rect width="43.82" height="40.17" fill="white"/>
</clipPath>
</defs>
</svg>
