<svg width="44" height="41" fill="none" xmlns="http://www.w3.org/2000/svg"><g id="a" clip-path="url(#clip0_2_7132)"><path id="Vector" fill-rule="evenodd" clip-rule="evenodd" d="M6.85 18.26a2.279 2.279 0 100 4.56 2.279 2.279 0 100-4.56zm0 5.48c-1.76 0-3.2-1.43-3.2-3.2 0-1.77 1.43-3.2 3.2-3.2 1.77 0 3.2 1.43 3.2 3.2 0 1.77-1.43 3.2-3.2 3.2zm30.12-5.48a2.279 2.279 0 100 4.56 2.279 2.279 0 100-4.56zm0 5.48c-1.76 0-3.2-1.43-3.2-3.2 0-1.77 1.43-3.2 3.2-3.2 1.77 0 3.2 1.43 3.2 3.2 0 1.77-1.43 3.2-3.2 3.2zm5.02-4.56c0-2.02-1.63-3.65-3.65-3.65H5.48c-2.02 0-3.65 1.63-3.65 3.65v7.3c0 2.02 1.63 3.65 3.65 3.65h3.65v-2.74c0-2.02 1.63-3.65 3.65-3.65h18.26c2.02 0 3.65 1.63 3.65 3.65v2.74h3.65c2.02 0 3.65-1.63 3.65-3.65v-7.3zM37.43 5.3c0-1.92-1.16-3.47-2.58-3.47H8.97c-1.42 0-2.58 1.55-2.58 3.47v9.31h31.04V5.29v.01zM6.39 36.97c0 .76.61 1.37 1.37 1.37h.91c.76 0 1.37-.61 1.37-1.37v-5.02H6.39v5.02zm5.48-6.85h21.91v-2.28c0-1.76-1.43-3.2-3.2-3.2H13.24c-1.76 0-3.2 1.43-3.2 3.2v2.28h1.83zm21.91 6.85c0 .76.61 1.37 1.37 1.37h.91c.76 0 1.37-.61 1.37-1.37v-5.02h-3.65v5.02zm5.48-5.11v5.11c0 1.76-1.43 3.2-3.2 3.2h-.91c-1.76 0-3.2-1.43-3.2-3.2v-5.02H11.87v5.02c0 1.76-1.43 3.2-3.2 3.2h-.91c-1.76 0-3.2-1.43-3.2-3.2v-5.11C1.98 31.42 0 29.19 0 26.47v-7.3c0-2.71 1.98-4.97 4.56-5.4V5.29C4.56 2.33 6.5 0 8.97 0h25.87c2.47 0 4.41 2.33 4.41 5.29v8.48c2.58.44 4.56 2.69 4.56 5.4v7.3c0 2.71-1.98 4.95-4.56 5.39h.01z" fill="#009EE3"/></g><defs><clipPath id="clip0_2_7132"><path fill="#fff" d="M0 0h43.82v40.17H0z"/></clipPath></defs></svg>