<svg width="77" height="61" fill="none" xmlns="http://www.w3.org/2000/svg"><g clip-path="url(#clip0_2_7054)" stroke="#009EE3" stroke-width="2" stroke-linecap="round" stroke-linejoin="round"><path d="M10 53.96v5.78M19.37 39v20.74m9.36-29.76v29.76m9.37-30.02v30.02M47.46 39v20.74m9.36-32.21v32.21m9.19-41.49v41.49M4.15 50.1a3.15 3.15 0 100-6.3 3.15 3.15 0 000 6.3zm30.26-28.04a3.15 3.15 0 100-6.3 3.15 3.15 0 000 6.3zm11.8 11.76a3.15 3.15 0 100-6.3 3.15 3.15 0 000 6.3zm18.64-18.75a3.15 3.15 0 100-6.3 3.15 3.15 0 000 6.3zM6.42 44.95L31.71 20.7m16.54 7.71l14.26-14.36m4.74-4.64L75.57 1m-38.7 19.79l7 7.62"/></g><defs><clipPath id="clip0_2_7054"><path fill="#fff" d="M0 0h76.57v60.74H0z"/></clipPath></defs></svg>