<svg width="19" height="18" fill="none" xmlns="http://www.w3.org/2000/svg"><g opacity=".5" fill="#fff" clip-path="url(#clip0_2_64)"><path d="M19 2.7H0v1.2h19V2.7zm0 5.7H0v1.2h19V8.4zm0 5.7H0v1.2h19v-1.2z"/><path d="M5.23 5.2a1.9 1.9 0 100-3.8 1.9 1.9 0 000 3.8z"/><path d="M5.23 5.8a2.5 2.5 0 010-5 2.5 2.5 0 010 5zm0-3.8c-.72 0-1.3.58-1.3 1.3 0 .72.58 1.3 1.3 1.3.72 0 1.3-.58 1.3-1.3 0-.72-.58-1.3-1.3-1.3zm7.59 8.9a1.9 1.9 0 100-3.8 1.9 1.9 0 000 3.8z"/><path d="M12.82 11.5a2.5 2.5 0 010-5 2.5 2.5 0 010 5zm0-3.8c-.72 0-1.3.58-1.3 1.3 0 .72.58 1.3 1.3 1.3.72 0 1.3-.58 1.3-1.3 0-.72-.58-1.3-1.3-1.3zm-7.59 8.9a1.9 1.9 0 100-3.8 1.9 1.9 0 000 3.8z"/><path d="M5.23 17.2a2.5 2.5 0 010-5 2.5 2.5 0 010 5zm0-3.8c-.72 0-1.3.58-1.3 1.3 0 .72.58 1.3 1.3 1.3.72 0 1.3-.58 1.3-1.3 0-.72-.58-1.3-1.3-1.3z"/></g><defs><clipPath id="clip0_2_64"><path fill="#fff" transform="translate(0 .8)" d="M0 0h19v16.4H0z"/></clipPath></defs></svg>