<svg width="13" height="18" viewBox="0 0 13 18" fill="none" xmlns="http://www.w3.org/2000/svg">
<g clip-path="url(#clip0_2_102)">
<g opacity="0.5">
<path d="M6.1 0C6.32 0 6.55 0 6.77 0C6.79 0 6.8 0 6.82 0C6.95 0.01 7.07 0.02 7.2 0.03C8.08 0.13 8.91 0.41 9.67 0.85C10.69 1.45 11.49 2.27 12.07 3.3C12.5 4.08 12.76 4.91 12.84 5.79C12.85 5.91 12.86 6.03 12.87 6.14V6.68C12.87 6.68 12.87 6.73 12.87 6.75C12.85 7.15 12.8 7.54 12.72 7.94C12.56 8.74 12.31 9.52 12.01 10.28C11.49 11.58 10.84 12.8 10.11 13.99C9.78 14.54 9.43 15.08 9.07 15.6C7.26 18.19 5.85 18.25 3.97 15.63C3.02 14.29 2.15 12.9 1.42 11.43C1.02 10.62 0.67 9.79 0.41 8.93C0.22 8.31 0.08 7.68 0.02 7.04C0.02 6.94 0 6.83 0 6.72C0 6.53 0 6.35 0 6.16C0 6.14 0 6.12 0 6.1C0.01 5.97 0.02 5.83 0.03 5.7C0.12 4.92 0.34 4.19 0.7 3.5C1.17 2.59 1.83 1.82 2.66 1.22C3.6 0.54 4.64 0.15 5.78 0.03C5.89 0.02 5.99 0.01 6.1 0ZM6.43 3.07C4.53 3.07 3.04 4.63 3.07 6.48C3.1 8.29 4.58 9.79 6.43 9.79C8.29 9.79 9.8 8.26 9.78 6.4C9.77 4.57 8.26 3.07 6.42 3.07H6.43Z" fill="white"/>
</g>
</g>
<defs>
<clipPath id="clip0_2_102">
<rect width="12.87" height="17.59" fill="white"/>
</clipPath>
</defs>
</svg>
