<svg width="13" height="18" fill="none" xmlns="http://www.w3.org/2000/svg"><g clip-path="url(#clip0_2_102)"><path d="M6.1 0h.72l.38.03c.88.1 1.71.38 2.47.82 1.02.6 1.82 1.42 2.4 2.45.43.78.69 1.61.77 2.49l.03.35v.61c-.02.4-.07.79-.15 1.19-.16.8-.41 1.58-.71 2.34-.52 1.3-1.17 2.52-1.9 3.71-.33.55-.68 1.09-1.04 1.61-1.81 2.59-3.22 2.65-5.1.03-.95-1.34-1.82-2.73-2.55-4.2-.4-.81-.75-1.64-1.01-2.5C.22 8.31.08 7.68.02 7.04c0-.1-.02-.21-.02-.32V6.1l.03-.4c.09-.78.31-1.51.67-2.2.47-.91 1.13-1.68 1.96-2.28C3.6.54 4.64.15 5.78.03L6.1 0zm.33 3.07c-1.9 0-3.39 1.56-3.36 3.41.03 1.81 1.51 3.31 3.36 3.31a3.359 3.359 0 00-.01-6.72h.01z" fill="#fff" opacity=".5"/></g><defs><clipPath id="clip0_2_102"><path fill="#fff" d="M0 0h12.87v17.59H0z"/></clipPath></defs></svg>