<svg width="39" height="47" fill="none" xmlns="http://www.w3.org/2000/svg"><g id="метро" clip-path="url(#clip0_2_7108)" fill="#009EE3"><path id="Vector" d="M16.09 20.37l3.19 5.19 3.39-5.19 1.12 3.2h-1.32v1.79h7.58v-1.79h-1.43L23.67 10.8l-4.19 7.38-4.39-7.38-5.03 12.77H8.71v1.79h7.58v-1.79h-1.27l1.07-3.2z"/><path id="Vector_2" d="M17.78 44.87l15.14-15.15.03-.04c2.25-2.97 3.44-6.51 3.44-10.25 0-9.36-7.61-16.97-16.97-16.97S2.45 10.07 2.45 19.43c0 4.57 1.79 8.86 5.04 12.07.23.23.36.54.36.87 0 .33-.12.64-.35.87a1.235 1.235 0 01-1.73.01C2.05 29.56 0 24.66 0 19.43 0 8.72 8.72 0 19.43 0c10.71 0 19.43 8.72 19.43 19.43 0 4.33-1.39 8.43-4.03 11.85l-.05.06L19.52 46.6l-1.73-1.73h-.01z"/></g><defs><clipPath id="clip0_2_7108"><path fill="#fff" d="M0 0h38.85v46.6H0z"/></clipPath></defs></svg>