<svg width="117" height="52" viewBox="0 0 117 52" fill="none" xmlns="http://www.w3.org/2000/svg">
<g clip-path="url(#clip0_2_7091)">
<path d="M37.75 45C39.68 45 41.25 43.43 41.25 41.5V34C41.25 33.45 41.7 33 42.25 33C42.8 33 43.25 33.45 43.25 34V34.5C43.25 36.43 44.82 38 46.75 38C48.68 38 50.25 36.43 50.25 34.5V31C50.25 30.45 50.7 30 51.25 30H53.25V30.62L55.05 31.52C53.93 32.26 53.25 33.5 53.25 34.86V47.01C53.25 49.77 55.49 52.01 58.25 52.01C61.01 52.01 63.25 49.77 63.25 47.01V37.01H64.25C64.8 37.01 65.25 37.46 65.25 38.01V41.51C65.25 43.44 66.82 45.01 68.75 45.01C70.68 45.01 72.25 43.44 72.25 41.51V34.51C72.25 33.68 72.92 33.01 73.75 33.01C74.58 33.01 75.25 33.68 75.25 34.51V38.51C75.25 40.44 76.82 42.01 78.75 42.01C80.68 42.01 82.25 40.44 82.25 38.51V6H77.25V0H39.25V1H37.75C35.82 1 34.25 2.57 34.25 4.5V41.5C34.25 43.43 35.82 45 37.75 45ZM60.15 33.07C60.83 33.41 61.26 34.1 61.26 34.86V47.01C61.26 48.66 59.91 50.01 58.26 50.01C56.61 50.01 55.26 48.66 55.26 47.01V34.86C55.26 34.1 55.68 33.41 56.37 33.07L57.27 32.62V30.38L55.27 29.38V28H61.27V29.38L59.27 30.38V32.62L60.17 33.07H60.15ZM78.75 40C77.92 40 77.25 39.33 77.25 38.5V34.5C77.25 32.57 75.68 31 73.75 31C71.82 31 70.25 32.57 70.25 34.5V41.5C70.25 42.33 69.58 43 68.75 43C67.92 43 67.25 42.33 67.25 41.5V38C67.25 36.35 65.9 35 64.25 35H63.25V34.85C63.25 33.49 62.57 32.25 61.45 31.51L63.25 30.61V25.99H59.25V22.8L80.25 18.24V38.5C80.25 39.33 79.58 40 78.75 40ZM41.25 2H75.25V12H41.25V2ZM36.25 4.5C36.25 3.67 36.92 3 37.75 3H39.25V14H77.25V8H80.25V16.19L57.25 21.19V26H53.25V28H51.25C49.6 28 48.25 29.35 48.25 31V34.5C48.25 35.33 47.58 36 46.75 36C45.92 36 45.25 35.33 45.25 34.5V34C45.25 32.35 43.9 31 42.25 31C40.6 31 39.25 32.35 39.25 34V41.5C39.25 42.33 38.58 43 37.75 43C36.92 43 36.25 42.33 36.25 41.5V4.5Z" fill="#009EE3"/>
<path d="M35 20H1C0.45 20 0 19.55 0 19C0 18.45 0.45 18 1 18H35C35.55 18 36 18.45 36 19C36 19.55 35.55 20 35 20Z" fill="#009EE3"/>
<path d="M116 20H82C81.45 20 81 19.55 81 19C81 18.45 81.45 18 82 18H116C116.55 18 117 18.45 117 19C117 19.55 116.55 20 116 20Z" fill="#009EE3"/>
</g>
<defs>
<clipPath id="clip0_2_7091">
<rect width="117" height="52" fill="white"/>
</clipPath>
</defs>
</svg>
