<svg width="117" height="52" fill="none" xmlns="http://www.w3.org/2000/svg"><g clip-path="url(#clip0_2_7091)" fill="#009EE3"><path d="M37.75 45c1.93 0 3.5-1.57 3.5-3.5V34c0-.55.45-1 1-1s1 .45 1 1v.5c0 1.93 1.57 3.5 3.5 3.5s3.5-1.57 3.5-3.5V31c0-.55.45-1 1-1h2v.62l1.8.9c-1.12.74-1.8 1.98-1.8 3.34v12.15c0 2.76 2.24 5 5 5s5-2.24 5-5v-10h1c.55 0 1 .45 1 1v3.5c0 1.93 1.57 3.5 3.5 3.5s3.5-1.57 3.5-3.5v-7c0-.83.67-1.5 1.5-1.5s1.5.67 1.5 1.5v4c0 1.93 1.57 3.5 3.5 3.5s3.5-1.57 3.5-3.5V6h-5V0h-38v1h-1.5c-1.93 0-3.5 1.57-3.5 3.5v37c0 1.93 1.57 3.5 3.5 3.5zm22.4-11.93a2 2 0 011.11 1.79v12.15c0 1.65-1.35 3-3 3s-3-1.35-3-3V34.86c0-.76.42-1.45 1.11-1.79l.9-.45v-2.24l-2-1V28h6v1.38l-2 1v2.24l.9.45h-.02zM78.75 40c-.83 0-1.5-.67-1.5-1.5v-4c0-1.93-1.57-3.5-3.5-3.5s-3.5 1.57-3.5 3.5v7c0 .83-.67 1.5-1.5 1.5s-1.5-.67-1.5-1.5V38c0-1.65-1.35-3-3-3h-1v-.15c0-1.36-.68-2.6-1.8-3.34l1.8-.9v-4.62h-4V22.8l21-4.56V38.5c0 .83-.67 1.5-1.5 1.5zM41.25 2h34v10h-34V2zm-5 2.5c0-.83.67-1.5 1.5-1.5h1.5v11h38V8h3v8.19l-23 5V26h-4v2h-2c-1.65 0-3 1.35-3 3v3.5c0 .83-.67 1.5-1.5 1.5s-1.5-.67-1.5-1.5V34c0-1.65-1.35-3-3-3s-3 1.35-3 3v7.5c0 .83-.67 1.5-1.5 1.5s-1.5-.67-1.5-1.5v-37z"/><path d="M35 20H1c-.55 0-1-.45-1-1s.45-1 1-1h34c.55 0 1 .45 1 1s-.45 1-1 1zm81 0H82c-.55 0-1-.45-1-1s.45-1 1-1h34c.55 0 1 .45 1 1s-.45 1-1 1z"/></g><defs><clipPath id="clip0_2_7091"><path fill="#fff" d="M0 0h117v52H0z"/></clipPath></defs></svg>