<svg width="16" height="17" fill="none" xmlns="http://www.w3.org/2000/svg"><g clip-path="url(#clip0_2_124)"><path d="M10.74 16.37c-1.18 0-2.29-.34-3.34-.91-1.01-.56-1.91-1.27-2.74-2.07-.87-.84-1.67-1.74-2.39-2.72C1.59 9.75.99 8.78.56 7.71.24 6.88.04 6.03 0 5.14c-.04-1.17.25-2.24.91-3.2.3-.44.68-.81 1.1-1.14.2-.16.38-.33.58-.49.54-.44 1.1-.4 1.6.08.39.38.68.82.96 1.27.18.29.36.57.52.87.22.4.37.82.38 1.28 0 .43-.16.8-.49 1.08-.39.34-.8.66-1.19.99-.36.31-.48.72-.41 1.18.11.63.42 1.18.78 1.7a14.3 14.3 0 001.79 2.1c.44.42.9.83 1.47 1.1.34.16.69.25 1.06.15.25-.06.45-.21.63-.39.31-.29.61-.58.93-.86.54-.48 1.14-.53 1.78-.23.4.19.75.44 1.08.74.41.37.83.74 1.25 1.12.2.19.35.42.45.68.15.38.11.74-.18 1.03-.61.62-1.22 1.22-2.01 1.61-.7.35-1.44.55-2.25.54v.02z" fill="#fff" opacity=".5"/></g><defs><clipPath id="clip0_2_124"><path fill="#fff" d="M0 0h15.26v16.37H0z"/></clipPath></defs></svg>