<svg width="31" height="34" fill="none" xmlns="http://www.w3.org/2000/svg"><g clip-path="url(#clip0_2_7111)"><path d="M4.6 23.8c0-.38.31-.68.68-.68h.16c.38 0 .68.31.68.68 0 .37-.31.68-.68.68h-.16a.68.68 0 01-.68-.68zM19.38 9.44a2.267 2.267 0 00.72 4.42h6.18A2.267 2.267 0 0027 9.44a.675.675 0 00-.86.43c-.12.36.07.74.43.86.37.13.62.47.62.86 0 .5-.41.91-.91.91H20.1c-.5 0-.91-.41-.91-.91 0-.39.25-.73.62-.86a.679.679 0 10-.43-1.29zM9.17 29.39a.675.675 0 00-.86.43c-.12.36.07.74.43.86.37.13.62.47.62.86 0 .5-.41.91-.91.91H2.27c-.5 0-.91-.41-.91-.91 0-.39.25-.73.62-.86.36-.12.55-.51.43-.86a.686.686 0 00-.87-.43 2.267 2.267 0 00.72 4.42h6.18a2.267 2.267 0 00.72-4.42h.01zm-5.69-.54c-1.22-2.39-1.97-4.07-1.97-5.05a3.841 3.841 0 017.68 0c0 .98-.75 2.66-1.97 5.05 0 0-.43.86-.46.9-.18.37-.5 1.05-1.42 1.05-.92 0-1.24-.68-1.42-1.05-.02-.05-.46-.9-.46-.9h.02zm-.6-5.05c0 .85 1.28 3.36 1.82 4.43 0 0 .58 1.16.62 1.21.02.03.06.02.08 0 .04-.05.1-.18.15-.27.03-.05.47-.94.47-.94.54-1.07 1.82-3.58 1.82-4.43a2.48 2.48 0 10-4.96 0zM30.71.68v4.89c0 .38-.31.68-.68.68h-6.15v3.14h.54c.38 0 .68.31.68.68 0 .37-.31.68-.68.68h-2.45a.68.68 0 01-.68-.68c0-.37.31-.68.68-.68h.54V.7c0-.39.31-.7.68-.7h6.83c.38 0 .68.31.68.68h.01zm-1.36.68h-5.47v3.53h5.47V1.36zm-4.21 14.86H5.57c-2.32 0-4.21-1.89-4.21-4.21 0-2.32 1.89-4.21 4.21-4.21h13.76c.38 0 .68-.31.68-.68 0-.37-.31-.68-.68-.68H5.57C2.5 6.44 0 8.94 0 12.02s2.5 5.57 5.57 5.57h19.56c2.32 0 4.21 1.89 4.21 4.21 0 2.32-1.89 4.21-4.21 4.21H11.38a.68.68 0 00-.68.68c0 .37.31.68.68.68h13.76c3.07 0 5.57-2.5 5.57-5.57 0-3.07-2.5-5.57-5.57-5.57v-.01z" fill="#ACABAE"/></g><defs><clipPath id="clip0_2_7111"><path fill="#fff" d="M0 0h30.71v33.81H0z"/></clipPath></defs></svg>