<svg width="77" height="61" viewBox="0 0 77 61" fill="none" xmlns="http://www.w3.org/2000/svg">
<g clip-path="url(#clip0_2_7054)">
<path d="M10 53.96V59.74" stroke="#009EE3" stroke-width="2" stroke-linecap="round" stroke-linejoin="round"/>
<path d="M19.37 39V59.74" stroke="#009EE3" stroke-width="2" stroke-linecap="round" stroke-linejoin="round"/>
<path d="M28.73 29.98V59.74" stroke="#009EE3" stroke-width="2" stroke-linecap="round" stroke-linejoin="round"/>
<path d="M38.1 29.72V59.74" stroke="#009EE3" stroke-width="2" stroke-linecap="round" stroke-linejoin="round"/>
<path d="M47.46 39V59.74" stroke="#009EE3" stroke-width="2" stroke-linecap="round" stroke-linejoin="round"/>
<path d="M56.82 27.53V59.74" stroke="#009EE3" stroke-width="2" stroke-linecap="round" stroke-linejoin="round"/>
<path d="M66.01 18.25V59.74" stroke="#009EE3" stroke-width="2" stroke-linecap="round" stroke-linejoin="round"/>
<path d="M4.15 50.1C5.8897 50.1 7.3 48.6897 7.3 46.9501C7.3 45.2104 5.8897 43.8 4.15 43.8C2.4103 43.8 1 45.2104 1 46.9501C1 48.6897 2.4103 50.1 4.15 50.1Z" stroke="#009EE3" stroke-width="2" stroke-linecap="round" stroke-linejoin="round"/>
<path d="M34.41 22.06C36.1497 22.06 37.56 20.6497 37.56 18.91C37.56 17.1703 36.1497 15.76 34.41 15.76C32.6703 15.76 31.26 17.1703 31.26 18.91C31.26 20.6497 32.6703 22.06 34.41 22.06Z" stroke="#009EE3" stroke-width="2" stroke-linecap="round" stroke-linejoin="round"/>
<path d="M46.21 33.82C47.9497 33.82 49.36 32.4097 49.36 30.67C49.36 28.9303 47.9497 27.52 46.21 27.52C44.4703 27.52 43.06 28.9303 43.06 30.67C43.06 32.4097 44.4703 33.82 46.21 33.82Z" stroke="#009EE3" stroke-width="2" stroke-linecap="round" stroke-linejoin="round"/>
<path d="M64.85 15.07C66.5897 15.07 68 13.6597 68 11.92C68 10.1803 66.5897 8.77002 64.85 8.77002C63.1103 8.77002 61.7 10.1803 61.7 11.92C61.7 13.6597 63.1103 15.07 64.85 15.07Z" stroke="#009EE3" stroke-width="2" stroke-linecap="round" stroke-linejoin="round"/>
<path d="M6.41998 44.95L31.71 20.7" stroke="#009EE3" stroke-width="2" stroke-linecap="round" stroke-linejoin="round"/>
<path d="M48.25 28.41L62.51 14.05" stroke="#009EE3" stroke-width="2" stroke-linecap="round" stroke-linejoin="round"/>
<path d="M67.25 9.41L75.57 1" stroke="#009EE3" stroke-width="2" stroke-linecap="round" stroke-linejoin="round"/>
<path d="M36.87 20.79L43.87 28.41" stroke="#009EE3" stroke-width="2" stroke-linecap="round" stroke-linejoin="round"/>
</g>
<defs>
<clipPath id="clip0_2_7054">
<rect width="76.57" height="60.74" fill="white"/>
</clipPath>
</defs>
</svg>
