<svg width="130" height="75" fill="none" xmlns="http://www.w3.org/2000/svg"><g id="Логотип" clip-path="url(#clip0_3_20889)"><g id="Group" fill="#fff"><path id="Vector" d="M.64 61.97H0V30.02h.59c1.34 0 2.75-.01 4.24-.05 2.98-.06 4.5-.09 4.56-.09 6.21 0 10.8 1.58 13.78 4.75 2.77 2.95 4.15 6.63 4.15 11.04 0 4.75-1.6 8.67-4.79 11.77-3.16 3.07-7.67 4.61-13.51 4.61-1.22 0-2.49-.02-3.83-.05-1.31-.03-2.83-.05-4.56-.05l.01.02zm8.67-26.83c-1.19 0-2.42.05-3.7.14v21.45c1.4.06 2.6.09 3.61.09 3.8 0 6.78-1 8.94-3.01 2.16-2.01 3.24-4.72 3.24-8.12 0-3.4-1.07-5.83-3.22-7.71-2.14-1.89-5.1-2.83-8.88-2.83l.01-.01z"/><path id="Vector_2" d="M31.44 46c0-4.65 1.55-8.56 4.65-11.73 3.16-3.16 7.15-4.75 11.96-4.75 4.81 0 8.78 1.52 11.91 4.56 3.16 3.07 4.75 7.04 4.75 11.91s-1.58 8.72-4.75 11.82c-3.16 3.1-7.13 4.65-11.91 4.65s-8.78-1.52-11.91-4.56c-3.13-3.04-4.7-7.01-4.7-11.91V46zm5.93 0c0 3.22 1.02 5.9 3.06 8.03 2.04 2.13 4.58 3.19 7.62 3.19 3.29 0 5.89-1.06 7.8-3.19 1.95-2.13 2.92-4.81 2.92-8.03 0-3.22-1.03-5.95-3.1-8.08-2.07-2.1-4.61-3.15-7.62-3.15s-5.63 1.05-7.67 3.15c-2.01 2.1-3.01 4.79-3.01 8.08z"/><path id="Vector_3" d="M76.8 61.97h-5.61V30.02h5.66l10.91 14.92 10.4-14.92h5.29v31.94h-5.57V38.87L87.8 53.06h-.82L76.8 39v22.97z"/></g><path id="Vector_4" d="M117 59.95v10.18H59.38v-6.3l-4.69 1.92v9.06h66.99V59.95H117z" fill="url(#paint0_linear_3_20889)"/><path id="Vector_5" d="M129.69 43.41h-7.86v-5.98c0-.5-.41-.91-.91-.91h-3.31c-.5 0-.91.41-.91.91v5.98h-5.97c-.5 0-.91.41-.91.91v3.25c0 .5.41.91.91.91h5.97v6.02c0 .5.41.91.91.91h3.31c.5 0 .91-.41.91-.91v-6.02h4.98l2.88-5.06v-.01z" fill="#fff"/><path id="Vector_6" d="M121.8 19.8L88.22.12a.886.886 0 00-.94.02L54.69 20.41v5.13l4.68 1.6v-3.86L87.14 5.76c.28-.18.65-.19.94-.02L117 22.43v9.74h4.68V20.08h-.05l.16-.29.01.01z" fill="url(#paint1_linear_3_20889)"/></g><defs><linearGradient id="paint0_linear_3_20889" x1="54.69" y1="67.38" x2="121.68" y2="67.38" gradientUnits="userSpaceOnUse"><stop stop-color="#009EE3"/><stop offset="1" stop-color="#5EC1EA"/></linearGradient><linearGradient id="paint1_linear_3_20889" x1="54.69" y1="16.09" x2="121.8" y2="16.09" gradientUnits="userSpaceOnUse"><stop stop-color="#009EE3"/><stop offset="1" stop-color="#5EC1EA"/></linearGradient><clipPath id="clip0_3_20889"><path fill="#fff" d="M0 0h129.69v74.81H0z"/></clipPath></defs></svg>