<svg width="77" height="44" fill="none" xmlns="http://www.w3.org/2000/svg"><g id="Логотип ДОМ+" clip-path="url(#clip0_4_40538)"><g id="Group" fill="#24529C"><path id="Vector" d="M.381 36.445H0V17.659h.354c.797 0 1.636-.007 2.517-.027l2.711-.055c3.682 0 6.415.927 8.183 2.788 1.643 1.738 2.468 3.902 2.468 6.498 0 2.789-.95 5.096-2.843 6.923-1.879 1.807-4.549 2.713-8.023 2.713-.72 0-1.484-.006-2.274-.027-.777-.02-1.678-.027-2.712-.027zM5.527 20.66c-.708 0-1.436.027-2.192.082v12.61c.833.035 1.547.056 2.143.056 2.26 0 4.03-.591 5.312-1.772 1.283-1.182 1.92-2.775 1.92-4.774s-.637-3.427-1.906-4.533c-1.276-1.106-3.03-1.662-5.27-1.662l-.007-.007z"/><path id="Vector_2" d="M18.668 27.048c0-2.74.922-5.034 2.766-6.896 1.88-1.861 4.244-2.788 7.101-2.788s5.208.893 7.073 2.685c1.88 1.807 2.816 4.142 2.816 7.006s-.937 5.124-2.816 6.951c-1.879 1.827-4.237 2.74-7.073 2.74-2.836 0-5.215-.892-7.073-2.685-1.858-1.786-2.788-4.12-2.788-7.006l-.006-.007zm3.522 0c0 1.896.604 3.469 1.817 4.726 1.207 1.25 2.718 1.882 4.528 1.882 1.949 0 3.495-.625 4.632-1.882 1.158-1.25 1.734-2.83 1.734-4.726 0-1.895-.617-3.496-1.845-4.753-1.227-1.236-2.739-1.854-4.528-1.854-1.789 0-3.342.618-4.549 1.854-1.192 1.237-1.789 2.816-1.789 4.753z"/><path id="Vector_3" d="M45.6 36.445h-3.335V17.659h3.357l6.476 8.778 6.179-8.778h3.141v18.786h-3.307v-13.58l-5.985 8.346h-.485l-6.04-8.263v13.497z"/></g><path id="Vector_4" d="M69.47 35.256v5.99H35.254v-3.71l-2.781 1.134V44h39.776v-8.744h-2.78z" fill="url(#paint0_linear_4_40538)"/><path id="Vector_5" d="M77 25.53h-4.667v-3.516a.539.539 0 00-.54-.536H69.83a.539.539 0 00-.541.536v3.516h-3.544c-.298 0-.54.24-.54.536v1.91c0 .295.242.535.54.535h3.544v3.538c0 .295.243.535.54.535h1.963c.298 0 .541-.24.541-.535V28.51h2.954L77 25.531z" fill="#24529C"/><path id="Vector_6" d="M72.32 11.642L52.375.076a.55.55 0 00-.562.006L32.467 12.006v3.015l2.78.941v-2.266L51.732 3.393a.552.552 0 01.555-.014l17.17 9.816v5.728h2.78v-7.11h-.028l.097-.164.014-.007z" fill="url(#paint1_linear_4_40538)"/></g><defs><linearGradient id="paint0_linear_4_40538" x1="32.474" y1="39.632" x2="72.25" y2="39.632" gradientUnits="userSpaceOnUse"><stop stop-color="#009EE3"/><stop offset="1" stop-color="#5EC1EA"/></linearGradient><linearGradient id="paint1_linear_4_40538" x1="32.474" y1="9.465" x2="72.319" y2="9.465" gradientUnits="userSpaceOnUse"><stop stop-color="#009EE3"/><stop offset="1" stop-color="#5EC1EA"/></linearGradient><clipPath id="clip0_4_40538"><path fill="#fff" d="M0 0h77v44H0z"/></clipPath></defs></svg>